<svg width="15" height="15" viewBox="0 0 15 15" fill="none" xmlns="http://www.w3.org/2000/svg">
<path d="M13.28 2.26539C12.528 1.51314 11.531 1.05578 10.4702 0.97649C9.40951 0.897195 8.35555 1.20123 7.50003 1.8333C6.59879 1.16296 5.47703 0.858999 4.36064 0.982621C3.24426 1.10624 2.21618 1.64827 1.48343 2.49955C0.750683 3.35083 0.367698 4.44813 0.4116 5.57048C0.455502 6.69283 0.923028 7.75686 1.72003 8.5483L6.99712 13.8254C7.06296 13.8918 7.14131 13.9445 7.22762 13.9804C7.31394 14.0164 7.40652 14.0349 7.50003 14.0349C7.59354 14.0349 7.68612 14.0164 7.77244 13.9804C7.85876 13.9445 7.9371 13.8918 8.00295 13.8254L13.28 8.5483C13.6927 8.13586 14.0201 7.64613 14.2435 7.1071C14.4669 6.56808 14.5819 5.99032 14.5819 5.40684C14.5819 4.82337 14.4669 4.24561 14.2435 3.70659C14.0201 3.16756 13.6927 2.67783 13.28 2.26539ZM12.2813 7.54955L7.50003 12.3237L2.71878 7.54955C2.29745 7.12646 2.01043 6.58838 1.89374 6.00279C1.77704 5.41721 1.83587 4.8102 2.06283 4.25792C2.2898 3.70564 2.67479 3.23268 3.16953 2.89837C3.66426 2.56406 4.2467 2.38328 4.84378 2.37872C5.64145 2.38067 6.40573 2.69912 6.96878 3.26414C7.03463 3.33053 7.11297 3.38322 7.19929 3.41918C7.28561 3.45515 7.37819 3.47366 7.4717 3.47366C7.56521 3.47366 7.65779 3.45515 7.74411 3.41918C7.83042 3.38322 7.90877 3.33053 7.97462 3.26414C8.55426 2.76184 9.30309 2.49853 10.0695 2.52749C10.836 2.55644 11.5628 2.87551 12.1029 3.4201C12.643 3.9647 12.956 4.69415 12.9786 5.46081C13.0012 6.22748 12.7317 6.97409 12.2246 7.54955H12.2813Z" fill="url(#paint0_linear_1187_1424)"/>
<defs>
<linearGradient id="paint0_linear_1187_1424" x1="0.408203" y1="0.955627" x2="13.4454" y2="15.0837" gradientUnits="userSpaceOnUse">
<stop stop-color="#1389FF"/>
<stop offset="1" stop-color="#1DB4E7"/>
</linearGradient>
</defs>
</svg>
